<?xml version="1.0" encoding="UTF-8"?>
<svg id="Layer_2" data-name="Layer 2" xmlns="http://www.w3.org/2000/svg" viewBox="0 0 41.99 57.85">
  <defs>
    <style>
      .cls-1 {
        fill: none;
        stroke: #231f20;
      }

      .cls-1, .cls-2, .cls-3 {
        stroke-miterlimit: 10;
      }

      .cls-2 {
        stroke: #000;
      }

      .cls-2, .cls-3 {
        fill: #231f20;
      }

      .cls-3 {
        stroke: #191817;
      }
    </style>
  </defs>
  <g id="Layer_1-2" data-name="Layer 1">
    <g>
      <path class="cls-1" d="m33.79,52.25v.77c0,2.39-1.88,4.33-4.19,4.33H4.69c-2.31,0-4.19-1.94-4.19-4.33V12.1c0-2.39,1.88-4.33,4.19-4.33h3.46"/>
      <g>
        <path class="cls-2" d="m12.75.5c-2.29,0-4.15,1.86-4.15,4.15v41.27c0,2.29,1.86,4.15,4.15,4.15h24.59c2.29,0,4.15-1.86,4.15-4.15V12.59c-3.24-4.03-6.47-8.06-9.71-12.09H12.75Z"/>
        <path class="cls-3" d="m41.49,12.59l-9.48.03c-.12,0-.21-.09-.21-.21l-.02-11.91"/>
      </g>
    </g>
  </g>
</svg>