<?xml version="1.0" encoding="UTF-8"?>
<svg id="Layer_2" data-name="Layer 2" xmlns="http://www.w3.org/2000/svg" viewBox="0 0 66.16 66.18">
  <defs>
    <style>
      .cls-1 {
        fill: #fff;
        font-family: MyriadPro-Regular, 'Myriad Pro';
        font-size: 24px;
      }

      .cls-2 {
        fill: #ffcd05;
      }

      .cls-3 {
        fill: #ed2024;
      }

      .cls-4 {
        fill: #304593;
      }

      .cls-5 {
        fill: #344da1;
      }

      .cls-6 {
        fill: #45b864;
      }

      .cls-7 {
        fill: #d71e20;
      }

      .cls-8 {
        fill: #40a85b;
      }

      .cls-9 {
        fill: #e8ba08;
      }
    </style>
  </defs>
  <g id="Layer_1-2" data-name="Layer 1">
    <rect class="cls-3" x="34.16" width="32" height="32" rx="2.71" ry="2.71"/>
    <rect class="cls-6" x="34.16" y="34.18" width="32" height="32" rx="2.71" ry="2.71"/>
    <rect class="cls-5" width="32" height="32" rx="2.71" ry="2.71"/>
    <rect class="cls-2" y="34.18" width="32" height="32" rx="2.71" ry="2.71"/>
    <rect class="cls-4" x="3.5" y="3.47" width="25" height="25.06" rx="2.71" ry="2.71"/>
    <rect class="cls-7" x="37.66" y="3.5" width="25" height="25" rx="2.71" ry="2.71"/>
    <rect class="cls-8" x="37.66" y="37.68" width="25" height="25" rx="2.71" ry="2.71"/>
    <rect class="cls-9" x="3.5" y="37.68" width="25" height="25" rx="2.71" ry="2.71"/>
    <text class="cls-1" transform="translate(8.01 24.22)"><tspan x="0" y="0">G</tspan></text>
    <text class="cls-1" transform="translate(42.72 24.22)"><tspan x="0" y="0">A</tspan></text>
    <text class="cls-1" transform="translate(6.12 57.75)"><tspan x="0" y="0">M</tspan></text>
    <text class="cls-1" transform="translate(43.32 57.75)"><tspan x="0" y="0">E</tspan></text>
  </g>
</svg>