<?xml version="1.0" encoding="UTF-8"?>
<svg id="Layer_2" data-name="Layer 2" xmlns="http://www.w3.org/2000/svg" viewBox="0 0 46.3 58.69">
  <defs>
    <style>
      .cls-1 {
        fill: #a3a295;
      }

      .cls-1, .cls-2, .cls-3 {
        stroke: #231f20;
        stroke-miterlimit: 10;
      }

      .cls-2 {
        fill: #fff;
      }

      .cls-3 {
        fill: #fcee21;
      }
    </style>
  </defs>
  <g id="Layer_1-2" data-name="Layer 1">
    <g>
      <path class="cls-3" d="m29.71,50.33c.13-.95.4-2.47,1.08-4.2,1.56-4.01,3.8-5.44,5.76-8.64,1.03-1.69,2.3-4.36,2.78-8.33v.07c.05-.58.09-1.17.09-1.76,0-8.91-7.18-16.13-16.03-16.13S7.36,18.55,7.36,27.46c0,.6.04,1.18.1,1.76v-.27c.48,4.01,1.76,6.71,2.8,8.41,1.98,3.23,4.24,4.68,5.81,8.72.68,1.75.96,3.27,1.09,4.24l-.07-.5,12.71-.07"/>
      <path class="cls-3" d="m24.81,14.87c1.12.18,3.34.7,5.54,2.39,2.62,2,3.7,4.51,4.1,5.58"/>
      <rect class="cls-1" x="16.26" y="52.03" width="14.04" height="1.89" rx=".94" ry=".94"/>
      <rect class="cls-1" x="17.09" y="56.3" width="12.38" height="1.89" rx=".94" ry=".94"/>
      <path class="cls-2" d="m23.12,0c.02,2.97.03,5.94.05,8.91"/>
      <path class="cls-2" d="m35.71,2.86c-1.26,2.69-2.52,5.38-3.78,8.07"/>
      <path class="cls-2" d="m45.94,11.7c-2.09,2.11-4.18,4.22-6.26,6.34"/>
      <path class="cls-2" d="m9.35,3.66c1.72,2.42,3.44,4.85,5.15,7.27"/>
      <path class="cls-2" d="m.35,11.74c2.11,2.09,4.22,4.18,6.34,6.26"/>
    </g>
  </g>
</svg>