<?xml version="1.0" encoding="UTF-8"?>
<svg id="Layer_2" data-name="Layer 2" xmlns="http://www.w3.org/2000/svg" viewBox="0 0 65.91 44.38">
  <defs>
    <style>
      .cls-1 {
        fill: none;
        stroke: #231f20;
      }

      .cls-1, .cls-2 {
        stroke-miterlimit: 10;
      }

      .cls-2 {
        fill: #231f20;
        stroke: #333;
      }
    </style>
  </defs>
  <g id="Layer_1-2" data-name="Layer 1">
    <g>
      <path class="cls-1" d="m56.94,15.34c.32.2,2.72,1.76,3.13,4.84.33,2.44-.72,4.91-2.7,6.42"/>
      <path class="cls-1" d="m60.57,9.15c.68.62,4.66,4.37,4.84,10.58.2,7.06-4.69,11.33-5.27,11.82"/>
      <path class="cls-2" d="m16.04,14.07c-.08,0-.16-.03-.24-.03H3.43c-1.62,0-2.93,1.44-2.93,3.21v4.73c0,1.77,1.31,3.21,2.93,3.21h12.37c.08,0,.16-.02.24-.03v-11.09Z"/>
      <path class="cls-2" d="m6.49,25.19v17.34c0,.74.52,1.35,1.16,1.35h1.24c.64,0,1.16-.6,1.16-1.35v-17.34h-3.57Z"/>
      <path class="cls-2" d="m48.3.68c-2.16,1.61-4.56,3.22-7.21,4.75-9.15,5.26-17.95,7.62-24.81,8.7v11.21c6.83,1.18,15.82,3.76,24.98,9.64,2.52,1.62,4.78,3.31,6.79,5,.08.04.95.44,1.93.03.57-.24.98-.69.98-1.25l.19-36.81c0-1.1-1.56-1.8-2.84-1.26Z"/>
    </g>
  </g>
</svg>