<?xml version="1.0" encoding="UTF-8"?>
<svg id="Layer_2" data-name="Layer 2" xmlns="http://www.w3.org/2000/svg" viewBox="0 0 67.33 61.86">
  <defs>
    <style>
      .cls-1 {
        fill: none;
        stroke: #000;
        stroke-miterlimit: 10;
      }
    </style>
  </defs>
  <g id="Layer_1-2" data-name="Layer 1">
    <g>
      <path class="cls-1" d="m44.64,33.83h-3.16l-1.98-5.53,2.23-2.23c.99-.99,1.29-2.31.66-2.94l-3.7-3.7c-.63-.63-1.94-.33-2.94.66l-2.23,2.23-5.29-1.97v-3.16c0-1.41-.72-2.54-1.61-2.54h-5.23c-.89,0-1.61,1.14-1.61,2.54v3.16l-5.35,1.99-2.23-2.23c-.99-.99-2.31-1.29-2.94-.66l-3.7,3.7c-.63.63-.33,1.94.66,2.94l2.23,2.23-2.25,5.34h-3.16c-1.41,0-2.54.72-2.54,1.61v5.23c0,.89,1.14,1.61,2.54,1.61h3.16l2.58,5.63-2.23,2.23c-.99.99-1.29,2.31-.66,2.94l3.7,3.7c.63.63,1.94.33,2.94-.66l2.23-2.23,4.77,1.93v3.16c0,1.41.72,2.54,1.61,2.54h5.23c.89,0,1.61-1.14,1.61-2.54v-3.16l5.22-2.16,2.23,2.23c.99.99,2.31,1.29,2.94.66l3.7-3.7c.63-.63.33-1.94-.66-2.94l-2.23-2.23,2.29-5.23h3.16c1.41,0,2.54-.72,2.54-1.61v-5.23c0-.89-1.14-1.61-2.54-1.61Zm-20.8,16.67c-6.9,0-12.5-5.6-12.5-12.5s5.6-12.5,12.5-12.5,12.5,5.6,12.5,12.5-5.6,12.5-12.5,12.5Z"/>
      <path class="cls-1" d="m31.75,36.4h-1.2l-.75-2.12.85-.86c.38-.38.49-.89.25-1.13l-1.41-1.42c-.24-.24-.74-.13-1.12.25l-.85.86-2.01-.76v-1.21c0-.54-.27-.98-.61-.98h-1.99c-.34,0-.61.44-.61.98v1.21l-2.03.77-.85-.86c-.38-.38-.88-.49-1.12-.25l-1.41,1.42c-.24.24-.13.75.25,1.13l.85.86-.85,2.05h-1.2c-.53,0-.97.28-.97.62v2.01c0,.34.43.62.97.62h1.2l.98,2.16-.85.86c-.38.38-.49.89-.25,1.13l1.41,1.42c.24.24.74.13,1.12-.25l.85-.86,1.81.74v1.21c0,.54.27.98.61.98h1.99c.34,0,.61-.44.61-.98v-1.21l1.98-.83.85.86c.38.38.88.49,1.12.25l1.41-1.42c.24-.24.13-.75-.25-1.13l-.85-.86.87-2.01h1.2c.53,0,.97-.28.97-.62v-2.01c0-.34-.43-.62-.97-.62Zm-7.91,6.4c-2.63,0-4.75-2.15-4.75-4.8s2.13-4.8,4.75-4.8,4.75,2.15,4.75,4.8-2.13,4.8-4.75,4.8Z"/>
      <path class="cls-1" d="m65.47,10.77h-1.69l-1.06-2.96,1.2-1.2c.53-.53.69-1.24.35-1.57l-1.98-1.98c-.34-.34-1.04-.18-1.57.35l-1.2,1.2-2.83-1.06v-1.69c0-.75-.39-1.36-.86-1.36h-2.8c-.48,0-.86.61-.86,1.36v1.69l-2.86,1.07-1.2-1.2c-.53-.53-1.24-.69-1.57-.35l-1.98,1.98c-.34.34-.18,1.04.35,1.57l1.2,1.2-1.2,2.86h-1.69c-.75,0-1.36.39-1.36.86v2.8c0,.48.61.86,1.36.86h1.69l1.38,3.01-1.2,1.2c-.53.53-.69,1.24-.35,1.57l1.98,1.98c.34.34,1.04.18,1.57-.35l1.2-1.2,2.56,1.03v1.69c0,.75.39,1.36.86,1.36h2.8c.48,0,.86-.61.86-1.36v-1.69l2.79-1.16,1.2,1.2c.53.53,1.24.69,1.57.35l1.98-1.98c.34-.34.18-1.04-.35-1.57l-1.2-1.2,1.23-2.8h1.69c.75,0,1.36-.39,1.36-.86v-2.8c0-.48-.61-.86-1.36-.86Zm-11.14,8.92c-3.7,0-6.69-3-6.69-6.69s3-6.69,6.69-6.69,6.69,3,6.69,6.69-3,6.69-6.69,6.69Z"/>
    </g>
  </g>
</svg>